<svg xmlns="http://www.w3.org/2000/svg" xmlns:xlink="http://www.w3.org/1999/xlink" width="500" zoomAndPan="magnify" viewBox="0 0 375 374.999991" height="500" preserveAspectRatio="xMidYMid meet" version="1.0"><defs><g/></defs><g fill="#ffbd59" fill-opacity="1"><g transform="translate(22.391583, 265.136222)"><g><path d="M 279.1875 -43.921875 C 279.769531 -44.078125 281.363281 -44.441406 283.96875 -45.015625 C 287.875 -45.691406 292.570312 -46.507812 298.0625 -47.46875 C 303.5625 -48.4375 308.40625 -49.085938 312.59375 -49.421875 C 316.789062 -49.765625 318.890625 -49.441406 318.890625 -48.453125 C 318.316406 -47.617188 315.710938 -46.507812 311.078125 -45.125 C 306.441406 -43.75 300.972656 -42.378906 294.671875 -41.015625 C 288.367188 -39.660156 282.546875 -38.4375 277.203125 -37.34375 C 271.859375 -36.25 268.273438 -35.519531 266.453125 -35.15625 C 262.648438 -34.476562 259.785156 -32.523438 257.859375 -29.296875 C 241.347656 -6.171875 222.257812 14.554688 200.59375 32.890625 C 184.695312 46.648438 167.582031 58.6875 149.25 69 C 142.113281 73.113281 134.816406 76.71875 127.359375 79.8125 C 119.910156 82.914062 112.175781 85.378906 104.15625 87.203125 C 96.601562 88.816406 89 89.285156 81.34375 88.609375 C 72.28125 87.671875 65.9375 84.3125 62.3125 78.53125 C 58.695312 72.75 58.320312 65.507812 61.1875 56.8125 C 63.269531 51.394531 66.1875 46.578125 69.9375 42.359375 C 75.820312 35.472656 82.410156 29.398438 89.703125 24.140625 C 99.703125 16.898438 110.148438 10.414062 121.046875 4.6875 C 121.929688 4.21875 122.84375 3.773438 123.78125 3.359375 C 124.925781 2.785156 126.070312 2.132812 127.21875 1.40625 C 128.832031 0.625 129.640625 -0.675781 129.640625 -2.5 C 129.742188 -3.644531 129.796875 -4.84375 129.796875 -6.09375 C 129.796875 -7.8125 129.796875 -9.609375 129.796875 -11.484375 C 129.796875 -33.578125 129.796875 -55.742188 129.796875 -77.984375 C 129.796875 -107.992188 129.796875 -138.078125 129.796875 -168.234375 C 129.796875 -168.441406 129.796875 -168.726562 129.796875 -169.09375 C 129.796875 -171.75 129.847656 -174.429688 129.953125 -177.140625 C 130.421875 -179.898438 132.375 -181.332031 135.8125 -181.4375 C 139.144531 -181.332031 140.96875 -179.847656 141.28125 -176.984375 C 141.539062 -174.585938 141.617188 -172.140625 141.515625 -169.640625 C 141.515625 -169.066406 141.515625 -168.546875 141.515625 -168.078125 C 141.617188 -144.117188 141.617188 -120.15625 141.515625 -96.1875 C 141.515625 -69.9375 141.566406 -43.628906 141.671875 -17.265625 C 141.671875 -16.273438 141.617188 -15.3125 141.515625 -14.375 C 141.253906 -9.894531 141.644531 -7.394531 142.6875 -6.875 C 143.726562 -6.351562 146.644531 -7.1875 151.4375 -9.375 C 151.695312 -9.476562 151.984375 -9.609375 152.296875 -9.765625 C 180.835938 -21.796875 210.296875 -30.832031 240.671875 -36.875 C 247.546875 -38.019531 252.703125 -41.644531 256.140625 -47.75 C 264.265625 -61.8125 271.140625 -76.863281 276.765625 -92.90625 C 282.398438 -108.945312 286.242188 -124.882812 288.296875 -140.71875 C 290.359375 -156.5625 290.125 -171.242188 287.59375 -184.765625 C 285.070312 -198.285156 279.769531 -209.5625 271.6875 -218.59375 C 263.613281 -227.632812 252.242188 -233.363281 237.578125 -235.78125 C 222.921875 -238.207031 204.46875 -236.21875 182.21875 -229.8125 C 170.96875 -226.789062 158.503906 -222.242188 144.828125 -216.171875 C 131.160156 -210.109375 117.265625 -202.867188 103.140625 -194.453125 C 89.023438 -186.035156 75.703125 -176.863281 63.171875 -166.9375 C 50.648438 -157.019531 39.878906 -146.734375 30.859375 -136.078125 C 21.847656 -125.429688 15.570312 -114.765625 12.03125 -104.078125 C 10.988281 -100.796875 8.75 -99.207031 5.3125 -99.3125 C 3.488281 -99.3125 2.144531 -99.859375 1.28125 -100.953125 C 0.425781 -102.046875 0.179688 -103.453125 0.546875 -105.171875 C 1.796875 -109.285156 3.566406 -113.164062 5.859375 -116.8125 C 11.328125 -125.675781 17.628906 -133.882812 24.765625 -141.4375 C 43.003906 -161.226562 65.117188 -179.378906 91.109375 -195.890625 C 117.109375 -212.410156 142.945312 -224.96875 168.625 -233.5625 C 192.382812 -241.113281 212.816406 -244.429688 229.921875 -243.515625 C 247.035156 -242.609375 261.078125 -238.285156 272.046875 -230.546875 C 283.015625 -222.816406 291.035156 -212.503906 296.109375 -199.609375 C 301.191406 -186.710938 303.5625 -172.097656 303.21875 -155.765625 C 302.882812 -139.441406 299.992188 -122.253906 294.546875 -104.203125 C 289.109375 -86.148438 281.28125 -68.0625 271.0625 -49.9375 C 268.925781 -46.1875 268.285156 -44 269.140625 -43.375 C 270.003906 -42.75 271.921875 -42.773438 274.890625 -43.453125 C 276.140625 -43.660156 277.570312 -43.816406 279.1875 -43.921875 Z M 237.390625 -20.703125 C 237.753906 -21.171875 238.09375 -21.585938 238.40625 -21.953125 C 240.125 -23.671875 241.269531 -25.78125 241.84375 -28.28125 C 240.957031 -28.957031 240.054688 -29.269531 239.140625 -29.21875 C 238.234375 -29.164062 237.3125 -29.035156 236.375 -28.828125 C 236.007812 -28.722656 235.671875 -28.59375 235.359375 -28.4375 C 221.035156 -24.789062 206.851562 -20.703125 192.8125 -16.171875 C 178.769531 -11.640625 164.925781 -6.351562 151.28125 -0.3125 C 150.34375 0.15625 149.484375 0.570312 148.703125 0.9375 C 146.410156 1.820312 144.742188 2.613281 143.703125 3.3125 C 142.660156 4.019531 142.035156 4.921875 141.828125 6.015625 C 141.617188 7.109375 141.566406 8.722656 141.671875 10.859375 C 141.671875 12.003906 141.671875 13.382812 141.671875 15 C 141.566406 17.394531 141.566406 19.738281 141.671875 22.03125 C 141.671875 24.320312 141.617188 26.691406 141.515625 29.140625 C 141.515625 31.429688 141.382812 33.722656 141.125 36.015625 C 140.550781 39.097656 138.675781 40.585938 135.5 40.484375 C 132.0625 40.222656 130.265625 38.265625 130.109375 34.609375 C 129.898438 30.597656 129.796875 26.640625 129.796875 22.734375 C 129.796875 19.972656 129.796875 17.289062 129.796875 14.6875 C 129.585938 11.925781 128.257812 11.117188 125.8125 12.265625 C 118.144531 16.378906 110.78125 20.894531 103.71875 25.8125 C 96.664062 30.738281 90.117188 36.304688 84.078125 42.515625 C 80.273438 46.421875 77.175781 50.769531 74.78125 55.5625 C 72.851562 59.46875 71.8125 63.609375 71.65625 67.984375 C 71.8125 75.328125 75.378906 79.910156 82.359375 81.734375 C 86.679688 82.773438 90.976562 82.828125 95.25 81.890625 C 103.476562 80.273438 111.4375 77.890625 119.125 74.734375 C 126.8125 71.585938 134.273438 67.90625 141.515625 63.6875 C 160.265625 52.90625 177.582031 40.398438 193.46875 26.171875 C 209.363281 11.953125 224.003906 -3.671875 237.390625 -20.703125 Z M 237.390625 -20.703125 "/></g></g></g></svg>