<svg xmlns="http://www.w3.org/2000/svg" xmlns:xlink="http://www.w3.org/1999/xlink" width="1640" zoomAndPan="magnify" viewBox="0 0 1230 599.999999" height="800" preserveAspectRatio="xMidYMid meet" version="1.0"><defs><g/></defs><g fill="#ffbd59" fill-opacity="1"><g transform="translate(189.52177, 371.181966)"><g><path d="M 306.59375 -56.65625 C 306.269531 -55.914062 305.835938 -55.234375 305.296875 -54.609375 C 304.765625 -53.992188 304.128906 -53.601562 303.390625 -53.4375 C 300.835938 -53.03125 298.285156 -52.828125 295.734375 -52.828125 C 295.242188 -52.828125 294.628906 -52.828125 293.890625 -52.828125 C 287.878906 -52.828125 281.785156 -52.742188 275.609375 -52.578125 C 273.304688 -52.578125 271.046875 -52.492188 268.828125 -52.328125 C 263.066406 -52.492188 259.117188 -49.78125 256.984375 -44.1875 C 249.734375 -28.382812 241.460938 -13.160156 232.171875 1.484375 C 219.492188 21.722656 205.234375 40.546875 189.390625 57.953125 C 173.554688 75.359375 155.890625 91.015625 136.390625 104.921875 C 112.691406 121.367188 85.945312 134.445312 56.15625 144.15625 C 26.375 153.875 -4.085938 159.125 -35.234375 159.90625 C -66.378906 160.6875 -95.695312 155.769531 -123.1875 145.15625 C -131.332031 142.03125 -139.085938 138.203125 -146.453125 133.671875 C -153.816406 129.148438 -160.539062 123.71875 -166.625 117.375 C -171.894531 112.113281 -176.175781 106.234375 -179.46875 99.734375 C -185.0625 87.960938 -185.0625 76.273438 -179.46875 64.671875 C -174.03125 53.816406 -166.066406 44.375 -155.578125 36.34375 C -145.085938 28.320312 -133.320312 21.304688 -120.28125 15.296875 C -107.238281 9.296875 -94.050781 4.175781 -80.71875 -0.0625 C -67.394531 -4.300781 -55.21875 -7.941406 -44.1875 -10.984375 C -43.113281 -11.398438 -42.125 -11.769531 -41.21875 -12.09375 C -3.207031 -22.789062 35.257812 -31.472656 74.1875 -38.140625 C 74.019531 -50.148438 73.9375 -62.203125 73.9375 -74.296875 C 73.195312 -123.179688 72.375 -172.144531 71.46875 -221.1875 C 71.300781 -241.09375 69.941406 -260.921875 67.390625 -280.671875 C 66.648438 -287.171875 68.09375 -291.410156 71.71875 -293.390625 C 74.257812 -294.867188 76.703125 -295.300781 79.046875 -294.6875 C 81.398438 -294.070312 83.234375 -292.40625 84.546875 -289.6875 C 86.109375 -285.820312 87.175781 -281.75 87.75 -277.46875 C 89.238281 -267.257812 90.226562 -257.015625 90.71875 -246.734375 C 91.789062 -226.816406 92.613281 -206.898438 93.1875 -186.984375 C 93.757812 -167.078125 93.757812 -147.082031 93.1875 -127 C 93.1875 -108.90625 92.816406 -90.890625 92.078125 -72.953125 C 91.742188 -62.410156 91.5 -51.832031 91.34375 -41.21875 C 96.9375 -42.125 102.53125 -43.03125 108.125 -43.9375 C 114.289062 -44.84375 122.972656 -46.078125 134.171875 -47.640625 C 152.429688 -50.191406 171.703125 -53.007812 191.984375 -56.09375 C 212.273438 -59.1875 227.148438 -61.800781 236.609375 -63.9375 C 241.628906 -65.082031 244.960938 -68.375 246.609375 -73.8125 C 251.878906 -88.289062 256.238281 -102.9375 259.6875 -117.75 C 265.613281 -142.925781 268.207031 -168.4375 267.46875 -194.28125 C 267.132812 -207.363281 265.523438 -220.09375 262.640625 -232.46875 C 259.765625 -244.851562 255.160156 -256.847656 248.828125 -268.453125 C 227.765625 -306.140625 196.085938 -328.9375 153.796875 -336.84375 C 137.085938 -339.800781 120.546875 -340.765625 104.171875 -339.734375 C 87.796875 -338.703125 71.546875 -336.210938 55.421875 -332.265625 C 25.546875 -325.191406 -2.757812 -314.25 -29.5 -299.4375 C -35.34375 -296.3125 -41.019531 -292.9375 -46.53125 -289.3125 C -52.039062 -285.695312 -57.222656 -281.625 -62.078125 -277.09375 C -65.953125 -273.144531 -70.601562 -271.253906 -76.03125 -271.421875 C -78.332031 -271.585938 -80.144531 -272.570312 -81.46875 -274.375 C -81.957031 -275.53125 -82.117188 -276.601562 -81.953125 -277.59375 C -81.785156 -278.582031 -81.414062 -279.523438 -80.84375 -280.421875 C -78.875 -283.140625 -76.613281 -285.628906 -74.0625 -287.890625 C -71.507812 -290.160156 -68.789062 -292.28125 -65.90625 -294.25 C -50.519531 -305.28125 -34.144531 -314.5 -16.78125 -321.90625 C 25.914062 -341.320312 70.71875 -351.484375 117.625 -352.390625 C 136.632812 -352.710938 155.351562 -350.613281 173.78125 -346.09375 C 204.0625 -338.351562 229.195312 -323.4375 249.1875 -301.34375 C 269.1875 -279.25 281.617188 -252.816406 286.484375 -222.046875 C 289.929688 -198.347656 290.296875 -175 287.578125 -152 C 284.867188 -129 279.8125 -106.269531 272.40625 -83.8125 C 271.832031 -82 271.378906 -80.351562 271.046875 -78.875 C 268.328125 -72.039062 267.566406 -67.84375 268.765625 -66.28125 C 269.960938 -64.71875 274.34375 -64.140625 281.90625 -64.546875 C 283.144531 -64.546875 284.503906 -64.546875 285.984375 -64.546875 C 286.890625 -64.546875 287.796875 -64.546875 288.703125 -64.546875 C 291.410156 -64.710938 294.082031 -64.648438 296.71875 -64.359375 C 299.351562 -64.078125 301.945312 -63.238281 304.5 -61.84375 C 305.40625 -61.257812 306.082031 -60.515625 306.53125 -59.609375 C 306.988281 -58.710938 307.007812 -57.726562 306.59375 -56.65625 Z M 233.03125 -42.578125 C 234.675781 -46.691406 233.316406 -48.585938 228.953125 -48.265625 C 228.210938 -48.265625 227.472656 -48.179688 226.734375 -48.015625 C 215.878906 -46.859375 205.140625 -45.5 194.515625 -43.9375 C 190.898438 -43.363281 187.28125 -42.789062 183.65625 -42.21875 C 152.632812 -37.6875 121.738281 -32.828125 90.96875 -27.640625 C 90.96875 -24.929688 90.96875 -22.09375 90.96875 -19.125 C 90.96875 -15.175781 90.84375 -11.390625 90.59375 -7.765625 C 90.34375 -4.148438 89.539062 -1.253906 88.1875 0.921875 C 86.832031 3.109375 84.710938 4.203125 81.828125 4.203125 C 77.472656 3.617188 75.085938 0.242188 74.671875 -5.921875 C 74.503906 -8.804688 74.503906 -11.769531 74.671875 -14.8125 C 74.671875 -16.289062 74.585938 -17.726562 74.421875 -19.125 L 74.421875 -24.5625 C 53.441406 -20.78125 32.539062 -16.460938 11.71875 -11.609375 C 10.238281 -11.191406 8.800781 -10.816406 7.40625 -10.484375 C -4.9375 -7.773438 -19.148438 -4.238281 -35.234375 0.125 C -51.328125 4.488281 -67.476562 9.691406 -83.6875 15.734375 C -99.894531 21.785156 -114.601562 28.925781 -127.8125 37.15625 C -141.019531 45.382812 -150.992188 54.925781 -157.734375 65.78125 C -163.492188 76.320312 -163.660156 86.816406 -158.234375 97.265625 C -153.710938 105.242188 -147.828125 111.945312 -140.578125 117.375 C -129.722656 125.9375 -117.796875 132.273438 -104.796875 136.390625 C -86.109375 142.722656 -66.351562 146.113281 -45.53125 146.5625 C -24.71875 147.019531 -4.128906 145.128906 16.234375 140.890625 C 36.597656 136.648438 55.625 130.539062 73.3125 122.5625 C 99.8125 110.46875 123.550781 95.140625 144.53125 76.578125 C 165.519531 58.023438 184.238281 36.859375 200.6875 13.078125 C 213.195312 -4.441406 223.976562 -22.992188 233.03125 -42.578125 Z M 233.03125 -42.578125 "/></g></g></g><g fill="#ffbd59" fill-opacity="1"><g transform="translate(486.946928, 371.181966)"><g><path d="M 131.9375 -62.578125 C 133.582031 -62.242188 134.710938 -61.253906 135.328125 -59.609375 C 135.953125 -57.960938 135.726562 -56.523438 134.65625 -55.296875 C 127.25 -47.472656 119.1875 -39.941406 110.46875 -32.703125 C 102.320312 -25.710938 94.257812 -18.304688 86.28125 -10.484375 C 81.582031 -5.390625 78.863281 0.570312 78.125 7.40625 C 77.96875 8.476562 77.890625 9.585938 77.890625 10.734375 C 75.910156 28.429688 73.253906 47.644531 69.921875 68.375 C 66.585938 89.113281 61.648438 109.128906 55.109375 128.421875 C 48.566406 147.722656 39.703125 164.035156 28.515625 177.359375 C 24.890625 181.554688 20.8125 184.742188 16.28125 186.921875 C 11.757812 189.109375 6.578125 190 0.734375 189.59375 C -11.679688 188.351562 -19.800781 183.703125 -23.625 175.640625 C -27.457031 167.578125 -28.097656 157.3125 -25.546875 144.84375 C -22.992188 132.375 -18.507812 118.976562 -12.09375 104.65625 C -5.675781 90.34375 1.519531 76.394531 9.5 62.8125 C 17.476562 49.238281 24.984375 37.328125 32.015625 27.078125 C 39.054688 16.835938 44.59375 9.457031 48.625 4.9375 C 54.96875 -1.894531 58.300781 -9.753906 58.625 -18.640625 C 58.957031 -22.253906 59.25 -25.875 59.5 -29.5 C 60.15625 -36 60.601562 -43.238281 60.84375 -51.21875 C 58.300781 -49.40625 56.039062 -47.882812 54.0625 -46.65625 C 50.769531 -44.269531 47.765625 -42.253906 45.046875 -40.609375 C 37.066406 -35.921875 28.46875 -34.5625 19.25 -36.53125 C 12.34375 -38.507812 7.40625 -42.4375 4.4375 -48.3125 C 1.476562 -54.195312 0.0390625 -60.757812 0.125 -68 C 0.207031 -75.25 1.523438 -81.710938 4.078125 -87.390625 C 5.722656 -91.003906 8.394531 -93.304688 12.09375 -94.296875 C 15.800781 -95.285156 19.378906 -94.789062 22.828125 -92.8125 C 23.328125 -92.40625 23.800781 -91.789062 24.25 -90.96875 C 24.707031 -90.144531 24.851562 -89.40625 24.6875 -88.75 C 24.519531 -86.9375 24.066406 -85.125 23.328125 -83.3125 C 22.992188 -82.164062 22.707031 -80.972656 22.46875 -79.734375 C 20.488281 -71.421875 21.0625 -63.191406 24.1875 -55.046875 C 26.164062 -49.941406 29.414062 -49.117188 33.9375 -52.578125 C 41.507812 -59.078125 47.929688 -66.609375 53.203125 -75.171875 C 54.847656 -77.640625 56.285156 -80.148438 57.515625 -82.703125 C 58.253906 -83.765625 58.914062 -84.875 59.5 -86.03125 C 63.113281 -91.457031 68.085938 -93.800781 74.421875 -93.0625 C 81.421875 -92.65625 84.921875 -89.035156 84.921875 -82.203125 C 84.753906 -72.742188 84.425781 -63.40625 83.9375 -54.1875 C 83.6875 -49.820312 83.476562 -45.5 83.3125 -41.21875 C 82.988281 -37.601562 83.316406 -35.425781 84.296875 -34.6875 C 85.285156 -33.945312 87.300781 -34.851562 90.34375 -37.40625 C 92.40625 -39.050781 94.421875 -40.65625 96.390625 -42.21875 C 103.472656 -47.894531 110.425781 -53.53125 117.25 -59.125 C 121.78125 -62.738281 126.675781 -63.890625 131.9375 -62.578125 Z M 11.109375 168.234375 C 18.179688 159.515625 24.742188 146.78125 30.796875 130.03125 C 36.847656 113.289062 41.828125 95.945312 45.734375 78 C 49.640625 60.0625 51.757812 45.046875 52.09375 32.953125 C 49.207031 33.523438 45.8125 36.835938 41.90625 42.890625 C 38 48.941406 33.882812 56.632812 29.5625 65.96875 C 25.238281 75.3125 20.976562 85.039062 16.78125 95.15625 C 16.039062 96.96875 14.5 101.578125 12.15625 108.984375 C 9.8125 116.390625 7.425781 124.757812 5 134.09375 C 2.570312 143.4375 0.765625 151.914062 -0.421875 159.53125 C -1.617188 167.144531 -1.4375 172.125 0.125 174.46875 C 1.6875 176.8125 5.347656 174.734375 11.109375 168.234375 Z M 11.109375 168.234375 "/></g></g></g><g fill="#ffbd59" fill-opacity="1"><g transform="translate(606.657469, 371.181966)"><g><path d="M 162.921875 -58.015625 C 162.921875 -58.015625 163.003906 -58.015625 163.171875 -58.015625 C 164.078125 -57.847656 164.984375 -57.535156 165.890625 -57.078125 C 166.796875 -56.628906 167.367188 -55.75 167.609375 -54.4375 C 168.109375 -52.125 167.453125 -50.3125 165.640625 -49 C 158.234375 -43.8125 150.289062 -39.738281 141.8125 -36.78125 C 134.164062 -34.3125 126.453125 -32.75 118.671875 -32.09375 C 110.898438 -31.4375 103.023438 -31.476562 95.046875 -32.21875 C 84.753906 -33.28125 76.441406 -38.175781 70.109375 -46.90625 C 68.128906 -49.613281 66.113281 -52.328125 64.0625 -55.046875 C 62.082031 -57.765625 60.023438 -60.5625 57.890625 -63.4375 C 56.078125 -65.820312 53.8125 -66.113281 51.09375 -64.3125 C 47.800781 -61.925781 44.835938 -59.226562 42.203125 -56.21875 C 39.578125 -53.21875 37.113281 -50.113281 34.8125 -46.90625 C 34.644531 -46.488281 34.4375 -46.117188 34.1875 -45.796875 C 33.28125 -44.722656 32.375 -43.53125 31.46875 -42.21875 C 30.40625 -40.238281 29.171875 -38.425781 27.765625 -36.78125 C 25.378906 -34.0625 22.296875 -32.3125 18.515625 -31.53125 C 14.734375 -30.75 11.113281 -31.0625 7.65625 -32.46875 C 5.101562 -33.78125 3.457031 -35.671875 2.71875 -38.140625 C 0.414062 -47.441406 -1.023438 -56.78125 -1.609375 -66.15625 C -1.609375 -71.257812 0.738281 -74.265625 5.4375 -75.171875 C 10.863281 -76.398438 14.769531 -74.671875 17.15625 -69.984375 C 17.488281 -69.242188 17.734375 -68.335938 17.890625 -67.265625 C 18.140625 -66.191406 18.488281 -65.140625 18.9375 -64.109375 C 19.394531 -63.085938 20.238281 -62.25 21.46875 -61.59375 C 22.957031 -62.820312 24.316406 -63.972656 25.546875 -65.046875 C 28.429688 -67.597656 31.226562 -70.066406 33.9375 -72.453125 C 37.226562 -75.171875 40.679688 -77.101562 44.296875 -78.25 C 47.921875 -79.40625 51.789062 -79.984375 55.90625 -79.984375 C 65.539062 -79.984375 73.15625 -76.195312 78.75 -68.625 C 79.820312 -66.976562 80.929688 -65.414062 82.078125 -63.9375 C 84.546875 -60.15625 87.140625 -56.535156 89.859375 -53.078125 C 94.210938 -47.484375 100.015625 -44.601562 107.265625 -44.4375 C 114.671875 -44.101562 121.765625 -44.78125 128.546875 -46.46875 C 135.335938 -48.15625 141.898438 -50.726562 148.234375 -54.1875 C 148.484375 -54.351562 148.769531 -54.554688 149.09375 -54.796875 C 151.238281 -56.035156 153.441406 -57.023438 155.703125 -57.765625 C 157.960938 -58.503906 160.367188 -58.585938 162.921875 -58.015625 Z M 162.921875 -58.015625 "/></g></g></g><g fill="#ffbd59" fill-opacity="1"><g transform="translate(758.949022, 371.181966)"><g><path d="M 113.0625 -62.078125 C 113.96875 -61.921875 114.582031 -61.65625 114.90625 -61.28125 C 115.238281 -60.914062 115.609375 -60.195312 116.015625 -59.125 C 116.347656 -58.050781 115.976562 -56.773438 114.90625 -55.296875 C 113.84375 -53.816406 112.859375 -52.625 111.953125 -51.71875 C 105.203125 -45.382812 97.300781 -41.597656 88.25 -40.359375 C 83.0625 -39.617188 77.875 -39.429688 72.6875 -39.796875 C 67.507812 -40.171875 62.410156 -41.425781 57.390625 -43.5625 C 53.773438 -45.375 50.398438 -44.84375 47.265625 -41.96875 C 40.765625 -36.039062 33.976562 -30.363281 26.90625 -24.9375 C 23.28125 -22.21875 19.472656 -19.953125 15.484375 -18.140625 C 11.492188 -16.328125 7.15625 -15.300781 2.46875 -15.0625 C -11.269531 -15.300781 -16.703125 -22.003906 -13.828125 -35.171875 C -13.660156 -35.753906 -13.453125 -36.207031 -13.203125 -36.53125 C -9.253906 -47.226562 -4.03125 -56.875 2.46875 -65.46875 C 8.96875 -74.070312 17.195312 -81.253906 27.15625 -87.015625 C 33.738281 -90.878906 40.816406 -92.359375 48.390625 -91.453125 C 50.359375 -91.046875 52.25 -90.304688 54.0625 -89.234375 C 56.28125 -88.171875 57.1875 -86.445312 56.78125 -84.0625 C 56.613281 -83.3125 56.257812 -82.671875 55.71875 -82.140625 C 55.1875 -81.609375 54.632812 -81.09375 54.0625 -80.59375 C 53.726562 -80.1875 53.296875 -79.898438 52.765625 -79.734375 C 52.234375 -79.566406 51.675781 -79.484375 51.09375 -79.484375 C 45.664062 -79.316406 41 -77.734375 37.09375 -74.734375 C 33.1875 -71.734375 29.625 -68.335938 26.40625 -64.546875 C 22.789062 -60.515625 19.4375 -56.070312 16.34375 -51.21875 C 13.257812 -46.363281 10.734375 -40.5625 8.765625 -33.8125 C 16.003906 -38.007812 21.679688 -42.164062 25.796875 -46.28125 C 26.703125 -47.1875 27.609375 -48.007812 28.515625 -48.75 C 29.253906 -49.488281 29.992188 -50.148438 30.734375 -50.734375 C 34.359375 -54.109375 38.144531 -57.066406 42.09375 -59.609375 C 46.613281 -62.160156 51.09375 -63.4375 55.53125 -63.4375 C 59.976562 -63.4375 64.300781 -61.628906 68.5 -58.015625 C 74.257812 -52.910156 79.851562 -50.910156 85.28125 -52.015625 C 90.71875 -53.128906 95.78125 -55.046875 100.46875 -57.765625 C 105.238281 -60.640625 109.4375 -62.078125 113.0625 -62.078125 Z M 113.0625 -62.078125 "/></g></g></g><g fill="#ffbd59" fill-opacity="1"><g transform="translate(863.479793, 371.181966)"><g><path d="M 171.078125 -62.328125 C 172.722656 -62.492188 174.035156 -62.269531 175.015625 -61.65625 C 176.003906 -61.039062 176.5 -59.828125 176.5 -58.015625 C 176.832031 -57.109375 176.503906 -55.789062 175.515625 -54.0625 C 174.523438 -52.332031 173.390625 -50.664062 172.109375 -49.0625 C 170.835938 -47.457031 169.875 -46.285156 169.21875 -45.546875 C 163.207031 -39.210938 156.582031 -35.035156 149.34375 -33.015625 C 142.101562 -31.003906 134.328125 -30.738281 126.015625 -32.21875 C 121.984375 -32.957031 118.484375 -34.582031 115.515625 -37.09375 C 112.554688 -39.601562 109.96875 -42.664062 107.75 -46.28125 C 107.582031 -46.53125 107.421875 -46.738281 107.265625 -46.90625 C 104.710938 -51.019531 101.910156 -55.09375 98.859375 -59.125 C 97.378906 -61.09375 95.960938 -62.078125 94.609375 -62.078125 C 93.253906 -62.078125 91.671875 -61.175781 89.859375 -59.375 C 84.421875 -54.269531 79.726562 -48.550781 75.78125 -42.21875 C 72 -36.613281 66.570312 -34.101562 59.5 -34.6875 C 54.226562 -35.007812 50.769531 -37.722656 49.125 -42.828125 C 48.789062 -44.066406 48.625 -45.34375 48.625 -46.65625 C 48.21875 -53.15625 46.800781 -55.046875 44.375 -52.328125 C 41.945312 -49.617188 39.539062 -45.914062 37.15625 -41.21875 C 36.25 -39.414062 35.175781 -37.609375 33.9375 -35.796875 C 32.707031 -33.578125 31.429688 -31.394531 30.109375 -29.25 C 28.878906 -26.863281 27.523438 -24.519531 26.046875 -22.21875 C 23.492188 -18.59375 19.953125 -16.578125 15.421875 -16.171875 C 7.117188 -15.429688 2.429688 -19.050781 1.359375 -27.03125 C 1.023438 -33.945312 0.738281 -40.816406 0.5 -47.640625 C 0.332031 -50.765625 0.164062 -53.929688 0 -57.140625 C -0.164062 -59.859375 -0.25 -62.695312 -0.25 -65.65625 C -0.65625 -70.675781 -0.941406 -75.65625 -1.109375 -80.59375 C -1.273438 -87.09375 1.726562 -90.59375 7.90625 -91.09375 C 14.5625 -91.664062 18.425781 -88.945312 19.5 -82.9375 C 20.238281 -77.507812 20.816406 -72.082031 21.234375 -66.65625 C 21.234375 -63.03125 21.625 -60.828125 22.40625 -60.046875 C 23.1875 -59.265625 23.945312 -59.097656 24.6875 -59.546875 C 25.425781 -60.003906 26.164062 -60.6875 26.90625 -61.59375 C 26.90625 -61.59375 26.90625 -61.675781 26.90625 -61.84375 C 27.644531 -62.75 28.34375 -63.648438 29 -64.546875 C 30.8125 -67.097656 32.75 -69.445312 34.8125 -71.59375 C 40.238281 -76.28125 46.570312 -78.253906 53.8125 -77.515625 C 60.144531 -77.015625 64.671875 -73.96875 67.390625 -68.375 C 68.296875 -66.320312 69.734375 -66.035156 71.703125 -67.515625 C 73.679688 -68.992188 76.335938 -70.71875 79.671875 -72.6875 C 83.003906 -74.664062 86.6875 -76.023438 90.71875 -76.765625 C 100.257812 -78.742188 108.40625 -76.273438 115.15625 -69.359375 C 118.195312 -65.992188 121.160156 -62.296875 124.046875 -58.265625 C 124.296875 -57.929688 124.582031 -57.554688 124.90625 -57.140625 C 125.644531 -56.078125 126.382812 -54.925781 127.125 -53.6875 C 127.625 -52.625 128.242188 -51.515625 128.984375 -50.359375 C 132.023438 -46.410156 135.234375 -44.394531 138.609375 -44.3125 C 141.984375 -44.226562 145.335938 -45.273438 148.671875 -47.453125 C 152.003906 -49.640625 155.234375 -52.085938 158.359375 -54.796875 C 160.828125 -56.941406 163.109375 -58.734375 165.203125 -60.171875 C 167.304688 -61.609375 169.265625 -62.328125 171.078125 -62.328125 Z M 171.078125 -62.328125 "/></g></g></g><g fill="#ffbd59" fill-opacity="1"><g transform="translate(1026.384858, 371.181966)"><g><path d="M 89.859375 -61.84375 C 90.921875 -61.257812 91.410156 -60.289062 91.328125 -58.9375 C 91.253906 -57.582031 90.847656 -56.367188 90.109375 -55.296875 C 84.503906 -46.984375 78.492188 -39.617188 72.078125 -33.203125 C 65.660156 -26.785156 58.601562 -21.992188 50.90625 -18.828125 C 43.21875 -15.660156 34.394531 -14.773438 24.4375 -16.171875 C 17.769531 -17.242188 12.75 -19.503906 9.375 -22.953125 C 6 -26.410156 3.488281 -31.304688 1.84375 -37.640625 C -0.863281 -47.597656 -1.476562 -57.84375 0 -68.375 C 1.226562 -74.46875 5.015625 -77.640625 11.359375 -77.890625 C 17.035156 -77.890625 20.117188 -75.335938 20.609375 -70.234375 C 20.773438 -66.035156 20.773438 -61.878906 20.609375 -57.765625 C 20.609375 -57.191406 20.609375 -56.65625 20.609375 -56.15625 C 20.285156 -44.882812 22.117188 -37.171875 26.109375 -33.015625 C 30.097656 -28.859375 35.300781 -27.765625 41.71875 -29.734375 C 48.132812 -31.710938 54.960938 -36.242188 62.203125 -43.328125 C 63.109375 -44.234375 64.238281 -45.46875 65.59375 -47.03125 C 66.957031 -48.59375 68.460938 -50.15625 70.109375 -51.71875 C 72.410156 -54.101562 74.300781 -56.117188 75.78125 -57.765625 C 80.3125 -62.285156 85.003906 -63.644531 89.859375 -61.84375 Z M 9.75 -96.03125 C 4.726562 -96.351562 1.847656 -99.066406 1.109375 -104.171875 C 0.535156 -108.117188 1.15625 -111.90625 2.96875 -115.53125 C 4.613281 -118.65625 7.285156 -120.789062 10.984375 -121.9375 C 14.691406 -123.09375 18.1875 -122.765625 21.46875 -120.953125 C 22.707031 -120.296875 23.59375 -119.367188 24.125 -118.171875 C 24.664062 -116.984375 24.851562 -116.019531 24.6875 -115.28125 C 24.519531 -102.28125 19.539062 -95.863281 9.75 -96.03125 Z M 9.75 -96.03125 "/></g></g></g><g fill="#ffbd59" fill-opacity="1"><g transform="translate(1102.037003, 371.181966)"><g><path d="M 91.453125 -56.65625 C 91.867188 -56.820312 92.160156 -56.984375 92.328125 -57.140625 C 94.296875 -58.296875 96.515625 -59.488281 98.984375 -60.71875 C 101.453125 -61.957031 103.671875 -62.535156 105.640625 -62.453125 C 107.617188 -62.367188 108.773438 -61.050781 109.109375 -58.5 C 108.941406 -54.71875 104.890625 -50.707031 96.953125 -46.46875 C 89.015625 -42.226562 79.242188 -38.195312 67.640625 -34.375 C 56.035156 -30.550781 44.84375 -27.503906 34.0625 -25.234375 C 23.28125 -22.972656 15.175781 -21.96875 9.75 -22.21875 C 3.582031 -22.875 -0.9375 -25.113281 -3.8125 -28.9375 C -6.695312 -32.769531 -7.769531 -37.851562 -7.03125 -44.1875 C -5.96875 -51.019531 -2.863281 -57.972656 2.28125 -65.046875 C 7.425781 -72.117188 14.210938 -77.691406 22.640625 -81.765625 C 31.078125 -85.835938 40.441406 -86.972656 50.734375 -85.171875 C 52.378906 -85.003906 53.734375 -84.382812 54.796875 -83.3125 C 55.378906 -82.90625 55.894531 -82.347656 56.34375 -81.640625 C 56.800781 -80.941406 56.945312 -80.222656 56.78125 -79.484375 C 56.613281 -77.265625 55.253906 -75.84375 52.703125 -75.21875 C 50.148438 -74.601562 47.679688 -74.296875 45.296875 -74.296875 C 44.804688 -74.296875 44.269531 -74.21875 43.6875 -74.0625 C 37.1875 -73.15625 30.8125 -69.390625 24.5625 -62.765625 C 18.3125 -56.140625 14.816406 -48.957031 14.078125 -41.21875 C 14.078125 -37.925781 17.304688 -36.363281 23.765625 -36.53125 C 30.222656 -36.695312 38.015625 -38.015625 47.140625 -40.484375 C 56.273438 -42.953125 64.957031 -45.664062 73.1875 -48.625 C 81.414062 -51.59375 87.503906 -54.269531 91.453125 -56.65625 Z M 91.453125 -56.65625 "/></g></g></g><g fill="#ffbd59" fill-opacity="1"><g transform="translate(583.616908, 445.294119)"><g><path d="M 15.9375 -0.875 L 16.375 -0.875 L 16.375 0 L 3.96875 0 L 3.96875 -0.875 L 4.40625 -0.875 C 4.8125 -0.875 5.191406 -1.050781 5.546875 -1.40625 C 5.898438 -1.757812 6.207031 -2.171875 6.46875 -2.640625 C 6.738281 -3.109375 6.929688 -3.617188 7.046875 -4.171875 C 7.160156 -4.734375 7.21875 -5.25 7.21875 -5.71875 L 7.21875 -52.65625 C 7.21875 -53.070312 7.160156 -53.539062 7.046875 -54.0625 C 6.929688 -54.59375 6.738281 -55.09375 6.46875 -55.5625 C 6.207031 -56.03125 5.898438 -56.425781 5.546875 -56.75 C 5.191406 -57.070312 4.8125 -57.234375 4.40625 -57.234375 L 3.96875 -57.234375 L 3.96875 -58.125 L 19.28125 -58.125 C 25.15625 -58.125 29.691406 -56.976562 32.890625 -54.6875 C 36.085938 -52.394531 37.6875 -49.019531 37.6875 -44.5625 C 37.6875 -42.332031 37.316406 -40.378906 36.578125 -38.703125 C 35.847656 -37.023438 34.867188 -35.582031 33.640625 -34.375 C 32.410156 -33.175781 30.957031 -32.207031 29.28125 -31.46875 C 27.601562 -30.738281 25.828125 -30.203125 23.953125 -29.859375 L 30.296875 -20.171875 C 31.816406 -17.816406 33.367188 -15.507812 34.953125 -13.25 C 36.546875 -10.988281 38.101562 -8.65625 39.625 -6.25 C 40.039062 -5.664062 40.492188 -5.050781 40.984375 -4.40625 C 41.484375 -3.757812 42.015625 -3.171875 42.578125 -2.640625 C 43.140625 -2.109375 43.726562 -1.679688 44.34375 -1.359375 C 44.957031 -1.035156 45.585938 -0.875 46.234375 -0.875 L 46.234375 0 L 42.453125 0 C 40.097656 0 38.171875 -0.570312 36.671875 -1.71875 C 35.179688 -2.863281 33.9375 -4.195312 32.9375 -5.71875 C 30.289062 -9.59375 27.660156 -13.523438 25.046875 -17.515625 C 22.441406 -21.515625 19.847656 -25.453125 17.265625 -29.328125 C 16.617188 -29.378906 15.925781 -29.445312 15.1875 -29.53125 C 14.457031 -29.625 13.769531 -29.734375 13.125 -29.859375 L 13.125 -5.71875 C 13.125 -5.25 13.179688 -4.734375 13.296875 -4.171875 C 13.410156 -3.617188 13.597656 -3.109375 13.859375 -2.640625 C 14.128906 -2.171875 14.425781 -1.757812 14.75 -1.40625 C 15.070312 -1.050781 15.46875 -0.875 15.9375 -0.875 Z M 13.125 -55.125 L 13.125 -32.765625 L 13.5625 -32.765625 C 14.03125 -32.703125 14.773438 -32.65625 15.796875 -32.625 C 16.828125 -32.59375 18.109375 -32.578125 19.640625 -32.578125 C 20.867188 -32.578125 22.171875 -32.769531 23.546875 -33.15625 C 24.929688 -33.539062 26.222656 -34.1875 27.421875 -35.09375 C 28.628906 -36 29.628906 -37.1875 30.421875 -38.65625 C 31.210938 -40.125 31.609375 -41.972656 31.609375 -44.203125 C 31.609375 -46.429688 31.179688 -48.25 30.328125 -49.65625 C 29.484375 -51.070312 28.3125 -52.191406 26.8125 -53.015625 C 25.3125 -53.835938 23.503906 -54.394531 21.390625 -54.6875 C 19.285156 -54.976562 16.96875 -55.125 14.4375 -55.125 Z M 13.125 -55.125 "/></g></g></g><g fill="#ffbd59" fill-opacity="1"><g transform="translate(644.986631, 445.294119)"><g><path d="M 3.96875 -0.875 L 4.40625 -0.875 C 4.875 -0.875 5.285156 -1.035156 5.640625 -1.359375 C 5.992188 -1.679688 6.300781 -2.078125 6.5625 -2.546875 C 6.820312 -3.023438 7.023438 -3.523438 7.171875 -4.046875 C 7.316406 -4.578125 7.390625 -5.078125 7.390625 -5.546875 L 7.390625 -52.65625 C 7.390625 -53.070312 7.316406 -53.539062 7.171875 -54.0625 C 7.023438 -54.59375 6.820312 -55.09375 6.5625 -55.5625 C 6.300781 -56.03125 5.992188 -56.425781 5.640625 -56.75 C 5.285156 -57.070312 4.875 -57.234375 4.40625 -57.234375 L 3.96875 -57.234375 L 3.96875 -58.125 L 37.859375 -58.125 L 37.859375 -49.9375 L 36.984375 -49.9375 C 36.867188 -51.28125 36.335938 -52.46875 35.390625 -53.5 C 34.453125 -54.53125 32.988281 -55.046875 31 -55.046875 L 13.296875 -55.046875 L 13.296875 -32.765625 L 27.921875 -32.765625 C 29.265625 -32.765625 30.390625 -33.171875 31.296875 -33.984375 C 32.210938 -34.804688 32.671875 -35.773438 32.671875 -36.890625 L 33.546875 -36.890625 L 33.546875 -25.890625 L 32.671875 -25.890625 C 32.671875 -26.941406 32.226562 -27.847656 31.34375 -28.609375 C 30.46875 -29.378906 29.328125 -29.765625 27.921875 -29.765625 L 13.296875 -29.765625 L 13.296875 -3.078125 L 32.578125 -3.078125 C 33.691406 -3.078125 34.660156 -3.34375 35.484375 -3.875 C 36.304688 -4.40625 36.992188 -5.035156 37.546875 -5.765625 C 38.109375 -6.503906 38.519531 -7.296875 38.78125 -8.140625 C 39.050781 -8.992188 39.1875 -9.710938 39.1875 -10.296875 L 40.0625 -10.296875 L 40.0625 0 L 3.96875 0 Z M 3.96875 -0.875 "/></g></g></g><g fill="#ffbd59" fill-opacity="1"><g transform="translate(701.51436, 445.294119)"><g><path d="M 39.625 -15.59375 C 39.625 -12.65625 39.035156 -10.144531 37.859375 -8.0625 C 36.691406 -5.976562 35.179688 -4.289062 33.328125 -3 C 31.484375 -1.707031 29.398438 -0.765625 27.078125 -0.171875 C 24.753906 0.410156 22.453125 0.703125 20.171875 0.703125 C 17.816406 0.703125 15.785156 0.46875 14.078125 0 C 12.378906 -0.46875 10.828125 -0.910156 9.421875 -1.328125 C 8.484375 -1.617188 7.628906 -1.863281 6.859375 -2.0625 C 6.097656 -2.269531 5.335938 -2.375 4.578125 -2.375 L 4.578125 -12.421875 L 5.453125 -12.421875 C 5.453125 -10.191406 6.023438 -8.414062 7.171875 -7.09375 C 8.316406 -5.769531 9.648438 -4.753906 11.171875 -4.046875 C 12.703125 -3.347656 14.226562 -2.894531 15.75 -2.6875 C 17.28125 -2.476562 18.398438 -2.375 19.109375 -2.375 C 21.628906 -2.375 23.800781 -2.738281 25.625 -3.46875 C 27.445312 -4.207031 28.941406 -5.175781 30.109375 -6.375 C 31.285156 -7.582031 32.148438 -8.921875 32.703125 -10.390625 C 33.265625 -11.859375 33.546875 -13.351562 33.546875 -14.875 C 33.546875 -16.8125 33.132812 -18.441406 32.3125 -19.765625 C 31.5 -21.085938 30.429688 -22.25 29.109375 -23.25 C 27.785156 -24.25 26.269531 -25.097656 24.5625 -25.796875 C 22.863281 -26.503906 21.132812 -27.210938 19.375 -27.921875 C 17.375 -28.679688 15.40625 -29.472656 13.46875 -30.296875 C 11.53125 -31.117188 9.796875 -32.128906 8.265625 -33.328125 C 6.742188 -34.535156 5.515625 -35.972656 4.578125 -37.640625 C 3.640625 -39.316406 3.171875 -41.390625 3.171875 -43.859375 C 3.171875 -46.441406 3.671875 -48.6875 4.671875 -50.59375 C 5.671875 -52.5 7.003906 -54.066406 8.671875 -55.296875 C 10.347656 -56.535156 12.253906 -57.460938 14.390625 -58.078125 C 16.535156 -58.691406 18.722656 -59 20.953125 -59 C 22.484375 -59 23.921875 -58.894531 25.265625 -58.6875 C 26.617188 -58.488281 27.914062 -58.238281 29.15625 -57.9375 C 30.144531 -57.707031 31.109375 -57.519531 32.046875 -57.375 C 32.992188 -57.226562 33.90625 -57.15625 34.78125 -57.15625 L 34.78125 -48.078125 L 33.90625 -48.078125 C 33.789062 -51.128906 32.585938 -53.195312 30.296875 -54.28125 C 28.003906 -55.375 24.832031 -55.921875 20.78125 -55.921875 C 18.4375 -55.921875 16.515625 -55.523438 15.015625 -54.734375 C 13.515625 -53.941406 12.320312 -52.972656 11.4375 -51.828125 C 10.5625 -50.679688 9.960938 -49.445312 9.640625 -48.125 C 9.316406 -46.800781 9.15625 -45.640625 9.15625 -44.640625 C 9.15625 -43.003906 9.519531 -41.597656 10.25 -40.421875 C 10.988281 -39.242188 11.972656 -38.210938 13.203125 -37.328125 C 14.441406 -36.453125 15.867188 -35.660156 17.484375 -34.953125 C 19.097656 -34.253906 20.785156 -33.582031 22.546875 -32.9375 C 24.535156 -32.175781 26.554688 -31.351562 28.609375 -30.46875 C 30.671875 -29.59375 32.507812 -28.507812 34.125 -27.21875 C 35.738281 -25.925781 37.054688 -24.335938 38.078125 -22.453125 C 39.109375 -20.578125 39.625 -18.289062 39.625 -15.59375 Z M 39.625 -15.59375 "/></g></g></g><g fill="#ffbd59" fill-opacity="1"><g transform="translate(758.482263, 445.294119)"><g><path d="M 26.25 -0.875 L 26.6875 -0.875 L 26.6875 0 L 14.171875 0 L 14.171875 -0.875 L 14.625 -0.875 C 15.09375 -0.875 15.5 -1.050781 15.84375 -1.40625 C 16.195312 -1.757812 16.503906 -2.171875 16.765625 -2.640625 C 17.035156 -3.109375 17.226562 -3.617188 17.34375 -4.171875 C 17.46875 -4.734375 17.53125 -5.25 17.53125 -5.71875 L 17.53125 -54.859375 L 7.3125 -54.859375 C 6.375 -54.859375 5.550781 -54.648438 4.84375 -54.234375 C 4.132812 -53.828125 3.546875 -53.316406 3.078125 -52.703125 C 2.609375 -52.085938 2.253906 -51.410156 2.015625 -50.671875 C 1.785156 -49.941406 1.671875 -49.222656 1.671875 -48.515625 L 0.796875 -48.515625 L 0.796875 -58.125 L 40.328125 -58.125 L 40.328125 -48.515625 L 39.453125 -48.515625 C 39.453125 -49.222656 39.332031 -49.941406 39.09375 -50.671875 C 38.863281 -51.410156 38.515625 -52.085938 38.046875 -52.703125 C 37.578125 -53.316406 36.988281 -53.828125 36.28125 -54.234375 C 35.570312 -54.648438 34.75 -54.859375 33.8125 -54.859375 L 23.421875 -54.859375 L 23.421875 -5.71875 C 23.421875 -5.25 23.476562 -4.734375 23.59375 -4.171875 C 23.71875 -3.617188 23.910156 -3.109375 24.171875 -2.640625 C 24.429688 -2.171875 24.722656 -1.757812 25.046875 -1.40625 C 25.367188 -1.050781 25.769531 -0.875 26.25 -0.875 Z M 26.25 -0.875 "/></g></g></g><g fill="#ffbd59" fill-opacity="1"><g transform="translate(813.513398, 445.294119)"><g><path d="M 37.609375 -0.875 L 38.046875 -0.875 C 39.453125 -0.875 40.15625 -1.519531 40.15625 -2.8125 C 40.15625 -3.28125 40.066406 -3.78125 39.890625 -4.3125 L 31.96875 -25.71875 L 16.5625 -25.71875 L 8.890625 -4.671875 C 8.710938 -4.203125 8.625 -3.757812 8.625 -3.34375 C 8.625 -2.582031 8.828125 -1.976562 9.234375 -1.53125 C 9.648438 -1.09375 10.09375 -0.875 10.5625 -0.875 L 11.015625 -0.875 L 11.015625 0 L 1.234375 0 L 1.234375 -0.875 L 1.671875 -0.875 C 2.429688 -0.875 3.175781 -1.328125 3.90625 -2.234375 C 4.644531 -3.148438 5.25 -4.222656 5.71875 -5.453125 L 25.890625 -59.171875 L 45.609375 -5.984375 C 46.023438 -4.816406 46.597656 -3.671875 47.328125 -2.546875 C 48.066406 -1.429688 49.023438 -0.875 50.203125 -0.875 L 50.640625 -0.875 L 50.640625 0 L 37.609375 0 Z M 17.4375 -28.703125 L 31 -28.703125 L 24.21875 -47.109375 Z M 17.4375 -28.703125 "/></g></g></g><g fill="#ffbd59" fill-opacity="1"><g transform="translate(879.284885, 445.294119)"><g><path d="M 3.96875 -58.125 L 16.46875 -58.125 L 16.46875 -57.234375 L 16.03125 -57.234375 C 15.5625 -57.234375 15.148438 -57.070312 14.796875 -56.75 C 14.441406 -56.425781 14.128906 -56.03125 13.859375 -55.5625 C 13.597656 -55.09375 13.410156 -54.59375 13.296875 -54.0625 C 13.179688 -53.539062 13.125 -53.070312 13.125 -52.65625 L 13.125 -17.875 C 13.125 -15.582031 13.359375 -13.46875 13.828125 -11.53125 C 14.296875 -9.59375 15.085938 -7.921875 16.203125 -6.515625 C 17.316406 -5.109375 18.785156 -4.007812 20.609375 -3.21875 C 22.429688 -2.425781 24.660156 -2.03125 27.296875 -2.03125 C 30.234375 -2.03125 32.582031 -2.5 34.34375 -3.4375 C 36.101562 -4.375 37.453125 -5.585938 38.390625 -7.078125 C 39.328125 -8.578125 39.941406 -10.265625 40.234375 -12.140625 C 40.535156 -14.023438 40.6875 -15.878906 40.6875 -17.703125 L 40.6875 -52.65625 C 40.6875 -53.070312 40.625 -53.539062 40.5 -54.0625 C 40.382812 -54.59375 40.195312 -55.09375 39.9375 -55.5625 C 39.675781 -56.03125 39.367188 -56.425781 39.015625 -56.75 C 38.660156 -57.070312 38.273438 -57.234375 37.859375 -57.234375 L 37.421875 -57.234375 L 37.421875 -58.125 L 47.03125 -58.125 L 47.03125 -57.234375 L 46.578125 -57.234375 C 46.109375 -57.234375 45.710938 -57.070312 45.390625 -56.75 C 45.066406 -56.425781 44.773438 -56.03125 44.515625 -55.5625 C 44.253906 -55.09375 44.0625 -54.59375 43.9375 -54.0625 C 43.820312 -53.539062 43.765625 -53.070312 43.765625 -52.65625 L 43.765625 -17.96875 C 43.765625 -14.144531 43.296875 -11.015625 42.359375 -8.578125 C 41.421875 -6.148438 40.128906 -4.226562 38.484375 -2.8125 C 36.835938 -1.40625 34.910156 -0.441406 32.703125 0.078125 C 30.503906 0.609375 28.175781 0.875 25.71875 0.875 C 23.070312 0.875 20.617188 0.59375 18.359375 0.03125 C 16.097656 -0.519531 14.144531 -1.5 12.5 -2.90625 C 10.863281 -4.3125 9.570312 -6.234375 8.625 -8.671875 C 7.6875 -11.109375 7.21875 -14.175781 7.21875 -17.875 L 7.21875 -52.65625 C 7.21875 -53.070312 7.160156 -53.539062 7.046875 -54.0625 C 6.929688 -54.59375 6.738281 -55.09375 6.46875 -55.5625 C 6.207031 -56.03125 5.898438 -56.425781 5.546875 -56.75 C 5.191406 -57.070312 4.8125 -57.234375 4.40625 -57.234375 L 3.96875 -57.234375 Z M 3.96875 -58.125 "/></g></g></g><g fill="#ffbd59" fill-opacity="1"><g transform="translate(944.528161, 445.294119)"><g><path d="M 15.9375 -0.875 L 16.375 -0.875 L 16.375 0 L 3.96875 0 L 3.96875 -0.875 L 4.40625 -0.875 C 4.8125 -0.875 5.191406 -1.050781 5.546875 -1.40625 C 5.898438 -1.757812 6.207031 -2.171875 6.46875 -2.640625 C 6.738281 -3.109375 6.929688 -3.617188 7.046875 -4.171875 C 7.160156 -4.734375 7.21875 -5.25 7.21875 -5.71875 L 7.21875 -52.65625 C 7.21875 -53.070312 7.160156 -53.539062 7.046875 -54.0625 C 6.929688 -54.59375 6.738281 -55.09375 6.46875 -55.5625 C 6.207031 -56.03125 5.898438 -56.425781 5.546875 -56.75 C 5.191406 -57.070312 4.8125 -57.234375 4.40625 -57.234375 L 3.96875 -57.234375 L 3.96875 -58.125 L 19.28125 -58.125 C 25.15625 -58.125 29.691406 -56.976562 32.890625 -54.6875 C 36.085938 -52.394531 37.6875 -49.019531 37.6875 -44.5625 C 37.6875 -42.332031 37.316406 -40.378906 36.578125 -38.703125 C 35.847656 -37.023438 34.867188 -35.582031 33.640625 -34.375 C 32.410156 -33.175781 30.957031 -32.207031 29.28125 -31.46875 C 27.601562 -30.738281 25.828125 -30.203125 23.953125 -29.859375 L 30.296875 -20.171875 C 31.816406 -17.816406 33.367188 -15.507812 34.953125 -13.25 C 36.546875 -10.988281 38.101562 -8.65625 39.625 -6.25 C 40.039062 -5.664062 40.492188 -5.050781 40.984375 -4.40625 C 41.484375 -3.757812 42.015625 -3.171875 42.578125 -2.640625 C 43.140625 -2.109375 43.726562 -1.679688 44.34375 -1.359375 C 44.957031 -1.035156 45.585938 -0.875 46.234375 -0.875 L 46.234375 0 L 42.453125 0 C 40.097656 0 38.171875 -0.570312 36.671875 -1.71875 C 35.179688 -2.863281 33.9375 -4.195312 32.9375 -5.71875 C 30.289062 -9.59375 27.660156 -13.523438 25.046875 -17.515625 C 22.441406 -21.515625 19.847656 -25.453125 17.265625 -29.328125 C 16.617188 -29.378906 15.925781 -29.445312 15.1875 -29.53125 C 14.457031 -29.625 13.769531 -29.734375 13.125 -29.859375 L 13.125 -5.71875 C 13.125 -5.25 13.179688 -4.734375 13.296875 -4.171875 C 13.410156 -3.617188 13.597656 -3.109375 13.859375 -2.640625 C 14.128906 -2.171875 14.425781 -1.757812 14.75 -1.40625 C 15.070312 -1.050781 15.46875 -0.875 15.9375 -0.875 Z M 13.125 -55.125 L 13.125 -32.765625 L 13.5625 -32.765625 C 14.03125 -32.703125 14.773438 -32.65625 15.796875 -32.625 C 16.828125 -32.59375 18.109375 -32.578125 19.640625 -32.578125 C 20.867188 -32.578125 22.171875 -32.769531 23.546875 -33.15625 C 24.929688 -33.539062 26.222656 -34.1875 27.421875 -35.09375 C 28.628906 -36 29.628906 -37.1875 30.421875 -38.65625 C 31.210938 -40.125 31.609375 -41.972656 31.609375 -44.203125 C 31.609375 -46.429688 31.179688 -48.25 30.328125 -49.65625 C 29.484375 -51.070312 28.3125 -52.191406 26.8125 -53.015625 C 25.3125 -53.835938 23.503906 -54.394531 21.390625 -54.6875 C 19.285156 -54.976562 16.96875 -55.125 14.4375 -55.125 Z M 13.125 -55.125 "/></g></g></g><g fill="#ffbd59" fill-opacity="1"><g transform="translate(1005.897876, 445.294119)"><g><path d="M 37.609375 -0.875 L 38.046875 -0.875 C 39.453125 -0.875 40.15625 -1.519531 40.15625 -2.8125 C 40.15625 -3.28125 40.066406 -3.78125 39.890625 -4.3125 L 31.96875 -25.71875 L 16.5625 -25.71875 L 8.890625 -4.671875 C 8.710938 -4.203125 8.625 -3.757812 8.625 -3.34375 C 8.625 -2.582031 8.828125 -1.976562 9.234375 -1.53125 C 9.648438 -1.09375 10.09375 -0.875 10.5625 -0.875 L 11.015625 -0.875 L 11.015625 0 L 1.234375 0 L 1.234375 -0.875 L 1.671875 -0.875 C 2.429688 -0.875 3.175781 -1.328125 3.90625 -2.234375 C 4.644531 -3.148438 5.25 -4.222656 5.71875 -5.453125 L 25.890625 -59.171875 L 45.609375 -5.984375 C 46.023438 -4.816406 46.597656 -3.671875 47.328125 -2.546875 C 48.066406 -1.429688 49.023438 -0.875 50.203125 -0.875 L 50.640625 -0.875 L 50.640625 0 L 37.609375 0 Z M 17.4375 -28.703125 L 31 -28.703125 L 24.21875 -47.109375 Z M 17.4375 -28.703125 "/></g></g></g><g fill="#ffbd59" fill-opacity="1"><g transform="translate(1071.669393, 445.294119)"><g><path d="M 13.203125 -0.875 L 13.65625 -0.875 L 13.65625 0 L 3.875 0 L 3.875 -0.875 L 4.3125 -0.875 C 4.726562 -0.875 5.125 -1.050781 5.5 -1.40625 C 5.882812 -1.757812 6.191406 -2.171875 6.421875 -2.640625 C 6.660156 -3.109375 6.851562 -3.617188 7 -4.171875 C 7.144531 -4.734375 7.21875 -5.25 7.21875 -5.71875 L 7.21875 -52.65625 C 7.21875 -53.070312 7.171875 -53.539062 7.078125 -54.0625 C 6.992188 -54.59375 6.832031 -55.09375 6.59375 -55.5625 C 6.363281 -56.03125 6.039062 -56.425781 5.625 -56.75 C 5.21875 -57.070312 4.722656 -57.234375 4.140625 -57.234375 L 3.703125 -57.234375 L 3.703125 -58.125 L 12.59375 -58.125 L 44.5625 -7.75 L 44.5625 -52.65625 C 44.5625 -53.070312 44.488281 -53.539062 44.34375 -54.0625 C 44.195312 -54.59375 43.988281 -55.09375 43.71875 -55.5625 C 43.457031 -56.03125 43.148438 -56.425781 42.796875 -56.75 C 42.441406 -57.070312 42.03125 -57.234375 41.5625 -57.234375 L 41.125 -57.234375 L 41.125 -58.125 L 50.984375 -58.125 L 50.984375 -57.234375 L 50.546875 -57.234375 C 50.078125 -57.234375 49.664062 -57.070312 49.3125 -56.75 C 48.957031 -56.425781 48.648438 -56.03125 48.390625 -55.5625 C 48.128906 -55.09375 47.9375 -54.59375 47.8125 -54.0625 C 47.695312 -53.539062 47.640625 -53.070312 47.640625 -52.65625 L 47.640625 0 L 42.1875 0 L 10.296875 -50.546875 L 10.296875 -5.71875 C 10.296875 -5.25 10.351562 -4.734375 10.46875 -4.171875 C 10.59375 -3.617188 10.785156 -3.109375 11.046875 -2.640625 C 11.316406 -2.171875 11.625 -1.757812 11.96875 -1.40625 C 12.320312 -1.050781 12.734375 -0.875 13.203125 -0.875 Z M 13.203125 -0.875 "/></g></g></g><g fill="#ffbd59" fill-opacity="1"><g transform="translate(1140.786259, 445.294119)"><g><path d="M 26.25 -0.875 L 26.6875 -0.875 L 26.6875 0 L 14.171875 0 L 14.171875 -0.875 L 14.625 -0.875 C 15.09375 -0.875 15.5 -1.050781 15.84375 -1.40625 C 16.195312 -1.757812 16.503906 -2.171875 16.765625 -2.640625 C 17.035156 -3.109375 17.226562 -3.617188 17.34375 -4.171875 C 17.46875 -4.734375 17.53125 -5.25 17.53125 -5.71875 L 17.53125 -54.859375 L 7.3125 -54.859375 C 6.375 -54.859375 5.550781 -54.648438 4.84375 -54.234375 C 4.132812 -53.828125 3.546875 -53.316406 3.078125 -52.703125 C 2.609375 -52.085938 2.253906 -51.410156 2.015625 -50.671875 C 1.785156 -49.941406 1.671875 -49.222656 1.671875 -48.515625 L 0.796875 -48.515625 L 0.796875 -58.125 L 40.328125 -58.125 L 40.328125 -48.515625 L 39.453125 -48.515625 C 39.453125 -49.222656 39.332031 -49.941406 39.09375 -50.671875 C 38.863281 -51.410156 38.515625 -52.085938 38.046875 -52.703125 C 37.578125 -53.316406 36.988281 -53.828125 36.28125 -54.234375 C 35.570312 -54.648438 34.75 -54.859375 33.8125 -54.859375 L 23.421875 -54.859375 L 23.421875 -5.71875 C 23.421875 -5.25 23.476562 -4.734375 23.59375 -4.171875 C 23.71875 -3.617188 23.910156 -3.109375 24.171875 -2.640625 C 24.429688 -2.171875 24.722656 -1.757812 25.046875 -1.40625 C 25.367188 -1.050781 25.769531 -0.875 26.25 -0.875 Z M 26.25 -0.875 "/></g></g></g></svg>